<svg width="37" height="30" viewBox="0 0 37 30" fill="none" xmlns="http://www.w3.org/2000/svg">
<path d="M0.377563 1.875C0.377563 0.430685 1.18352 0.375 2.64287 0.375H34.3572C35.819 0.375 36.6225 0.430685 36.6225 1.875C36.6225 3.32177 35.7119 3.375 34.25 3.375H2.64287C1.18352 3.375 0.377563 3.32177 0.377563 1.875ZM0.377563 15.375C0.377563 13.9282 1.18352 13.875 2.64287 13.875H34.3572C35.819 13.875 36.6225 13.9282 36.6225 15.375C36.6225 16.8218 35.819 16.875 34.3572 16.875H2.64287C1.18352 16.875 0.377563 16.8218 0.377563 15.375ZM34.3572 29.625H2.64287C1.18352 29.625 0.377563 29.5718 0.377563 28.125C0.377563 26.6782 1.18352 26.625 2.64287 26.625H34.3572C35.819 26.625 36.6225 26.6782 36.6225 28.125C36.6225 29.5718 35.819 29.625 34.3572 29.625Z" fill="url(#paint0_linear_41_15)"/>
<defs>
<linearGradient id="paint0_linear_41_15" x1="0.377563" y1="15.4718" x2="36.6225" y2="15.4718" gradientUnits="userSpaceOnUse">
<stop stop-color="#64FFDA"/>
<stop offset="1" stop-color="#69DBFF"/>
</linearGradient>
</defs>
</svg>
