<svg width="80" height="42" viewBox="0 0 80 42" fill="none" xmlns="http://www.w3.org/2000/svg">
<path d="M42.7384 0.00745167V42H41.2188V3.59145C41.2188 3.43216 41.2188 3.27287 41.2188 3.11358C41.2399 2.9543 41.2505 2.79501 41.2505 2.63572L22.5722 33.5477C22.3612 33.8862 22.1079 34.0555 21.8124 34.0555H21.4958C21.1793 34.0555 20.9154 33.8862 20.7044 33.5477L1.45627 2.57598C1.47738 2.75518 1.48793 2.93438 1.48793 3.11358C1.50904 3.27287 1.51959 3.43216 1.51959 3.59145V42H0V0.00745167H1.04472C1.21356 0.00745167 1.35075 0.0373174 1.45627 0.0970487C1.5829 0.136873 1.69898 0.23643 1.80451 0.395719L21.1159 31.3376C21.3059 31.7159 21.4853 32.0843 21.6541 32.4427C21.7386 32.2635 21.823 32.0843 21.9074 31.9051C21.9918 31.7059 22.0868 31.5068 22.1923 31.3077L40.9339 0.395719C41.0394 0.23643 41.145 0.136873 41.2505 0.0970487C41.3771 0.0373174 41.5249 0.00745167 41.6937 0.00745167H42.7384Z" fill="url(#paint0_linear_41_12)"/>
<path d="M76.0427 -3.56038e-06L44.3847 0.007459H46.3633L76.0427 42L76.1773 21.4667H46.3633V42H44.3847V0.007459H46.3633V20.0667H76.1773L76.0427 -3.56038e-06Z" fill="url(#paint1_linear_41_12)"/>
<rect x="78.0214" width="1.97863" height="42" fill="url(#paint2_linear_41_12)"/>
<defs>
<linearGradient id="paint0_linear_41_12" x1="-3.61151e-07" y1="21.6774" x2="76.1773" y2="21.6774" gradientUnits="userSpaceOnUse">
<stop stop-color="#64FFDA"/>
<stop offset="1" stop-color="#69DBFF"/>
</linearGradient>
<linearGradient id="paint1_linear_41_12" x1="-3.61151e-07" y1="21.6774" x2="76.1773" y2="21.6774" gradientUnits="userSpaceOnUse">
<stop stop-color="#64FFDA"/>
<stop offset="1" stop-color="#69DBFF"/>
</linearGradient>
<linearGradient id="paint2_linear_41_12" x1="78.0214" y1="21.6774" x2="80" y2="21.6774" gradientUnits="userSpaceOnUse">
<stop stop-color="#64FFDA"/>
<stop offset="1" stop-color="#69DBFF"/>
</linearGradient>
</defs>
</svg>
